# This file uses centimeters as units for non-parametric coordinates.

mtllib Pokeup2.mtl
g default
v 0.541436 0.092268 0.105570
v 0.202801 0.092268 -0.033109
v -0.163064 0.092268 -0.040095
v -0.506746 0.092268 0.085557
v -0.781829 0.092268 0.326876
v -0.951162 0.092268 0.651271
v -0.991876 0.092268 1.014930
v -0.898471 0.092268 1.368740
v -0.683563 0.092268 1.664916
v -0.376176 0.092268 1.863458
v -0.017824 0.092268 1.937552
v 0.343094 0.092268 1.877191
v 0.657836 0.092268 1.690527
v 0.883893 0.092268 1.402771
v 0.990736 0.092268 1.052784
v 0.963934 0.092268 0.687836
v 0.807107 0.092268 0.357214
v 0.523038 0.273663 0.134053
v 0.195935 0.273663 0.000097
v -0.157471 0.273663 -0.006651
v -0.489449 0.273663 0.114722
v -0.755165 0.273663 0.347823
v -0.918731 0.273663 0.661171
v -0.958058 0.273663 1.012447
v -0.867835 0.273663 1.354208
v -0.660245 0.273663 1.640298
v -0.363325 0.273663 1.832079
v -0.017177 0.273663 1.903650
v 0.331451 0.273663 1.845344
v 0.635475 0.273663 1.665037
v 0.853834 0.273663 1.387080
v 0.957038 0.273663 1.049012
v 0.931148 0.273663 0.696491
v 0.779662 0.273663 0.377128
v 0.486869 0.445738 0.190051
v 0.182437 0.445738 0.065378
v -0.146475 0.445738 0.059098
v -0.455444 0.445738 0.172059
v -0.702744 0.445738 0.389004
v -0.854974 0.445738 0.680635
v -0.891575 0.445738 1.007564
v -0.807604 0.445738 1.325638
v -0.614402 0.445738 1.591900
v -0.338062 0.445738 1.770389
v -0.015905 0.445738 1.836999
v 0.308561 0.445738 1.782735
v 0.591513 0.445738 1.614925
v 0.794738 0.445738 1.356232
v 0.890789 0.445738 1.041595
v 0.866694 0.445738 0.713507
v 0.725707 0.445738 0.416278
v 0.434161 0.602635 0.271655
v 0.162767 0.602635 0.160512
v -0.130450 0.602635 0.154914
v -0.405889 0.602635 0.255615
v -0.626351 0.602635 0.449017
v -0.762061 0.602635 0.708999
v -0.794690 0.602635 1.000449
v -0.719832 0.602635 1.284005
v -0.547597 0.602635 1.521370
v -0.301246 0.602635 1.680489
v -0.014050 0.602635 1.739871
v 0.275203 0.602635 1.691496
v 0.527449 0.602635 1.541897
v 0.708619 0.602635 1.311278
v 0.794246 0.602635 1.030786
v 0.772766 0.602635 0.738304
v 0.647080 0.602635 0.473331
v 0.366709 0.739009 0.376086
v 0.137594 0.739009 0.282258
v -0.109943 0.739009 0.277532
v -0.342472 0.739009 0.362546
v -0.528589 0.739009 0.525818
v -0.643156 0.739009 0.745298
v -0.670702 0.739009 0.991343
v -0.607506 0.739009 1.230724
v -0.462103 0.739009 1.431111
v -0.254131 0.739009 1.565441
v -0.011677 0.739009 1.615572
v 0.232514 0.739009 1.574733
v 0.445463 0.739009 1.448440
v 0.598409 0.739009 1.253749
v 0.670697 0.739009 1.016954
v 0.652563 0.739009 0.770037
v 0.546457 0.739009 0.546344
v 0.286808 0.850217 0.499790
v 0.107776 0.850217 0.426471
v -0.085652 0.850217 0.422778
v -0.267352 0.850217 0.489209
v -0.412785 0.850217 0.616791
v -0.502310 0.850217 0.788295
v -0.523834 0.850217 0.980557
v -0.474453 0.850217 1.167612
v -0.360833 0.850217 1.324196
v -0.198322 0.850217 1.429163
v -0.008866 0.850217 1.468335
v 0.181948 0.850217 1.436423
v 0.348348 0.850217 1.337737
v 0.467861 0.850217 1.185603
v 0.524347 0.850217 1.000570
v 0.510178 0.850217 0.807626
v 0.427265 0.850217 0.632830
v 0.197181 0.932472 0.638552
v 0.074328 0.932472 0.588240
v -0.058404 0.932472 0.585706
v -0.183088 0.932472 0.631291
v -0.282885 0.932472 0.718839
v -0.344317 0.932472 0.836526
v -0.359088 0.932472 0.968458
v -0.325201 0.932472 1.096816
v -0.247235 0.932472 1.204266
v -0.135718 0.932472 1.276295
v -0.005712 0.932472 1.303175
v 0.125225 0.932472 1.281277
v 0.239410 0.932472 1.213557
v 0.321421 0.932472 1.109162
v 0.360183 0.932472 0.982191
v 0.350459 0.932472 0.849792
v 0.293564 0.932472 0.729845
v 0.100880 0.982973 0.787647
v 0.038389 0.982973 0.762056
v -0.029126 0.982973 0.760767
v -0.092548 0.982973 0.783954
v -0.143311 0.982973 0.828486
v -0.174559 0.982973 0.888349
v -0.182072 0.982973 0.955458
v -0.164836 0.982973 1.020749
v -0.125177 0.982973 1.075404
v -0.068453 0.982973 1.112042
v -0.002324 0.982973 1.125715
v 0.064279 0.982973 1.114576
v 0.122360 0.982973 1.080130
v 0.164076 0.982973 1.027028
v 0.183792 0.982973 0.962443
v 0.178846 0.982973 0.895097
v 0.149906 0.982973 0.834085
v 0.001184 1.000000 0.941999
vt 1.012918 0.522298
vt 1.085173 0.522251
vt 1.085214 0.579266
vt 1.012939 0.579407
vt 1.157275 0.522179
vt 1.157328 0.579055
vt 1.229174 0.522094
vt 1.229232 0.578801
vt 1.300851 0.522007
vt 1.300906 0.578542
vt 0.081318 0.522007
vt 0.152781 0.521929
vt 0.152827 0.578310
vt 0.081374 0.578542
vt 0.224070 0.521870
vt 0.224101 0.578137
vt 0.295245 0.521839
vt 0.295256 0.578045
vt 0.366380 0.521839
vt 0.366369 0.578045
vt 0.437555 0.521870
vt 0.437524 0.578137
vt 0.508844 0.521929
vt 0.508798 0.578310
vt 0.580307 0.522007
vt 0.580251 0.578542
vt 0.651983 0.522094
vt 0.651925 0.578801
vt 0.723882 0.522179
vt 0.723830 0.579055
vt 0.795984 0.522251
vt 0.795944 0.579266
vt 0.868240 0.522298
vt 0.868219 0.579407
vt 0.940579 0.522315
vt 0.940579 0.579456
vt 1.085300 0.636263
vt 1.012986 0.636492
vt 1.157443 0.635919
vt 1.229360 0.635506
vt 1.301028 0.635083
vt 0.152928 0.634706
vt 0.081496 0.635083
vt 0.224167 0.634425
vt 0.295279 0.634274
vt 0.366347 0.634274
vt 0.437458 0.634425
vt 0.508697 0.634706
vt 0.580130 0.635083
vt 0.651798 0.635506
vt 0.723715 0.635919
vt 0.795858 0.636263
vt 0.868172 0.636492
vt 0.940579 0.636572
vt 0.073582 0.956689
vt 0.067836 0.965501
vt 0.064212 0.962090
vt 0.068971 0.954817
vt 0.059294 0.971642
vt 0.057147 0.967153
vt 0.049111 0.974283
vt 0.048730 0.969321
vt 0.038661 0.973067
vt 0.040099 0.968303
vt 0.029356 0.968158
vt 0.032418 0.964235
vt 0.022453 0.960219
vt 0.026725 0.957667
vt 0.018884 0.950323
vt 0.023789 0.949486
vt 0.019130 0.939806
vt 0.024007 0.940798
vt 0.023160 0.930088
vt 0.027349 0.932774
vt 0.030427 0.922481
vt 0.033363 0.926500
vt 0.039952 0.918014
vt 0.041238 0.922822
vt 0.050448 0.917289
vt 0.049910 0.922237
vt 0.060496 0.920405
vt 0.058207 0.924824
vt 0.068740 0.926940
vt 0.065010 0.930234
vt 0.074067 0.936012
vt 0.069399 0.937736
vt 0.075757 0.946396
vt 0.070781 0.946316
vt 0.060684 0.958756
vt 0.064477 0.952983
vt 0.055062 0.962770
vt 0.048370 0.964481
vt 0.041511 0.963659
vt 0.035412 0.960415
vt 0.030897 0.955187
vt 0.028575 0.948681
vt 0.028761 0.941775
vt 0.031428 0.935403
vt 0.036218 0.930425
vt 0.042482 0.927513
vt 0.049375 0.927061
vt 0.055966 0.929129
vt 0.061365 0.933438
vt 0.064842 0.939407
vt 0.065929 0.946229
vt 0.057231 0.955472
vt 0.060071 0.951168
vt 0.053028 0.958459
vt 0.048030 0.959727
vt 0.042911 0.959103
vt 0.038364 0.956673
vt 0.035001 0.952764
vt 0.033278 0.947904
vt 0.033426 0.942750
vt 0.035427 0.937997
vt 0.039009 0.934288
vt 0.043689 0.932124
vt 0.048835 0.931796
vt 0.053752 0.933350
vt 0.057775 0.936574
vt 0.060363 0.941035
vt 0.061164 0.946128
vt 0.053833 0.952216
vt 0.055726 0.949359
vt 0.051036 0.954196
vt 0.047713 0.955032
vt 0.044312 0.954611
vt 0.041292 0.952989
vt 0.039063 0.950387
vt 0.037923 0.947155
vt 0.038029 0.943729
vt 0.039365 0.940573
vt 0.041750 0.938113
vt 0.044864 0.936681
vt 0.048284 0.936470
vt 0.051550 0.937508
vt 0.054220 0.939657
vt 0.055934 0.942625
vt 0.056459 0.946011
vt 0.050476 0.948972
vt 0.051423 0.947547
vt 0.049077 0.949958
vt 0.047417 0.950372
vt 0.045719 0.950159
vt 0.044213 0.949347
vt 0.043102 0.948045
vt 0.042536 0.946430
vt 0.042592 0.944720
vt 0.043261 0.943145
vt 0.044455 0.941919
vt 0.046011 0.941206
vt 0.047719 0.941104
vt 0.049349 0.941626
vt 0.050680 0.942701
vt 0.051533 0.944185
vt 0.051793 0.945876
vt 0.047138 0.945724
vn 0.531487 0.183748 -0.826896
vn 0.196888 0.183749 -0.963053
vn 0.519875 0.269190 -0.810720
vn 0.191903 0.269190 -0.943774
vn -0.164302 0.183749 -0.969145
vn -0.161987 0.269190 -0.949367
vn -0.503303 0.183749 -0.844348
vn -0.493999 0.269190 -0.826742
vn -0.774329 0.183749 -0.605517
vn -0.759294 0.269190 -0.592461
vn -0.940778 0.183749 -0.284907
vn -0.922042 0.269190 -0.278165
vn -0.980170 0.183749 0.074180
vn -0.960263 0.269191 0.073699
vn -0.887185 0.183749 0.423249
vn -0.868795 0.269191 0.415609
vn -0.674380 0.183749 0.715156
vn -0.659992 0.269190 0.701389
vn -0.370496 0.183749 0.910477
vn -0.362054 0.269190 0.892443
vn -0.016575 0.183749 0.982834
vn -0.015217 0.269190 0.962967
vn 0.339585 0.183750 0.922452
vn 0.333674 0.269190 0.903437
vn 0.649882 0.183749 0.737489
vn 0.637501 0.269190 0.721893
vn 0.872408 0.183748 0.452924
vn 0.855230 0.269190 0.442853
vn 0.977112 0.183749 0.107189
vn 0.957455 0.269190 0.104004
vn 0.949850 0.183749 -0.253023
vn 0.930370 0.269190 -0.248892
vn 0.794307 0.183749 -0.579063
vn 0.777635 0.269190 -0.568174
vn 0.483299 0.438852 -0.757516
vn 0.177017 0.438852 -0.880951
vn -0.153173 0.438852 -0.885408
vn -0.462676 0.438852 -0.770286
vn -0.709692 0.438852 -0.551132
vn -0.860860 0.438852 -0.257545
vn -0.895764 0.438852 0.070824
vn -0.809690 0.438852 0.389629
vn -0.614263 0.438852 0.655812
vn -0.335877 0.438852 0.833424
vn -0.012128 0.438852 0.898478
vn 0.313258 0.438852 0.842187
vn 0.596337 0.438852 0.672154
vn 0.798878 0.438852 0.411343
vn 0.893526 0.438852 0.094978
vn 0.867498 0.438852 -0.234215
vn 0.724310 0.438852 -0.531775
vn 0.430958 0.594135 -0.679175
vn 0.156511 0.594135 -0.788992
vn -0.139075 0.594135 -0.792251
vn -0.415878 0.594135 -0.688513
vn -0.636514 0.594135 -0.491787
vn -0.771185 0.594135 -0.228642
vn -0.801704 0.594135 0.065382
vn -0.723948 0.594135 0.350576
vn -0.548419 0.594135 0.588422
vn -0.298822 0.594135 0.746799
vn -0.008869 0.594135 0.804317
vn 0.282283 0.594135 0.753207
vn 0.535311 0.594135 0.600372
vn 0.716042 0.594135 0.366454
vn 0.800067 0.594135 0.083044
vn 0.776039 0.594135 -0.211582
vn 0.647203 0.594135 -0.477632
vn 0.364652 0.729922 -0.578137
vn 0.131181 0.729922 -0.670824
vn -0.120007 0.729922 -0.672913
vn -0.354988 0.729922 -0.584121
vn -0.542025 0.729922 -0.416440
vn -0.655859 0.729922 -0.192517
vn -0.681115 0.729922 0.057407
vn -0.614383 0.729922 0.299578
vn -0.464675 0.729922 0.501289
vn -0.252211 0.729922 0.635298
vn -0.005683 0.729922 0.683506
vn 0.241612 0.729922 0.639404
vn 0.456275 0.729922 0.508946
vn 0.609317 0.729922 0.309753
vn 0.680066 0.729922 0.068725
vn 0.658969 0.729922 -0.181584
vn 0.548875 0.729922 -0.407369
vn 0.286651 0.841728 -0.457521
vn 0.102019 0.841728 -0.530176
vn -0.096392 0.841728 -0.531228
vn -0.281785 0.841728 -0.460534
vn -0.429120 0.841728 -0.327643
vn -0.518501 0.841728 -0.150502
vn -0.537856 0.841728 0.046966
vn -0.484569 0.841728 0.238090
vn -0.365839 0.841728 0.397059
vn -0.197701 0.841728 0.502403
vn -0.002862 0.841728 0.539895
vn 0.192363 0.841728 0.504471
vn 0.361610 0.841728 0.400915
vn 0.482018 0.841728 0.243214
vn 0.537327 0.841728 0.052665
vn 0.520068 0.841728 -0.144996
vn 0.432570 0.841728 -0.323075
vn 0.199520 0.925845 -0.320940
vn 0.070110 0.925845 -0.371343
vn -0.068769 0.925845 -0.371593
vn -0.198360 0.925845 -0.321658
vn -0.301162 0.925845 -0.228281
vn -0.363290 0.925845 -0.104074
vn -0.376354 0.925845 0.034189
vn -0.338589 0.925845 0.167835
vn -0.255096 0.925845 0.278814
vn -0.137151 0.925845 0.352137
vn -0.000682 0.925845 0.377903
vn 0.135878 0.925845 0.352630
vn 0.254087 0.925845 0.279733
vn 0.337980 0.925845 0.169056
vn 0.376228 0.925845 0.035548
vn 0.363663 0.925845 -0.102762
vn 0.301984 0.925845 -0.227193
vn 0.105431 0.979399 -0.172226
vn 0.036097 0.979399 -0.198683
vn -0.038113 0.979399 -0.198306
vn -0.107176 0.979399 -0.171147
vn -0.161764 0.979399 -0.120873
vn -0.194504 0.979399 -0.054275
vn -0.200976 0.979399 0.019654
vn -0.180305 0.979399 0.090928
vn -0.135283 0.979399 0.149921
vn -0.071990 0.979399 0.188667
vn 0.001026 0.979399 0.201933
vn 0.073903 0.979399 0.187926
vn 0.136799 0.979399 0.148539
vn 0.181220 0.979399 0.089091
vn 0.201166 0.979399 0.017611
vn 0.193943 0.979399 -0.056248
vn 0.160527 0.979399 -0.122510
vn 0.000000 1.000000 0.000000
s 1
g polySurface6 polySurface2
usemtl lambert3SG
f 1/1/1 2/2/2 18/4/3
f 18/4/3 2/2/2 19/3/4
f 2/2/2 3/5/5 19/3/4
f 19/3/4 3/5/5 20/6/6
f 3/5/5 4/7/7 20/6/6
f 20/6/6 4/7/7 21/8/8
f 4/7/7 5/9/9 21/8/8
f 21/8/8 5/9/9 22/10/10
f 5/11/9 6/12/11 22/14/10
f 22/14/10 6/12/11 23/13/12
f 6/12/11 7/15/13 23/13/12
f 23/13/12 7/15/13 24/16/14
f 7/15/13 8/17/15 24/16/14
f 24/16/14 8/17/15 25/18/16
f 8/17/15 9/19/17 25/18/16
f 25/18/16 9/19/17 26/20/18
f 9/19/17 10/21/19 26/20/18
f 26/20/18 10/21/19 27/22/20
f 10/21/19 11/23/21 27/22/20
f 27/22/20 11/23/21 28/24/22
f 11/23/21 12/25/23 28/24/22
f 28/24/22 12/25/23 29/26/24
f 12/25/23 13/27/25 29/26/24
f 29/26/24 13/27/25 30/28/26
f 13/27/25 14/29/27 30/28/26
f 30/28/26 14/29/27 31/30/28
f 14/29/27 15/31/29 31/30/28
f 31/30/28 15/31/29 32/32/30
f 15/31/29 16/33/31 32/32/30
f 32/32/30 16/33/31 33/34/32
f 16/33/31 17/35/33 33/34/32
f 33/34/32 17/35/33 34/36/34
f 17/35/33 1/1/1 34/36/34
f 34/36/34 1/1/1 18/4/3
f 18/4/3 19/3/4 35/38/35
f 35/38/35 19/3/4 36/37/36
f 19/3/4 20/6/6 36/37/36
f 36/37/36 20/6/6 37/39/37
f 20/6/6 21/8/8 37/39/37
f 37/39/37 21/8/8 38/40/38
f 21/8/8 22/10/10 38/40/38
f 38/40/38 22/10/10 39/41/39
f 22/14/10 23/13/12 39/43/39
f 39/43/39 23/13/12 40/42/40
f 23/13/12 24/16/14 40/42/40
f 40/42/40 24/16/14 41/44/41
f 24/16/14 25/18/16 41/44/41
f 41/44/41 25/18/16 42/45/42
f 25/18/16 26/20/18 42/45/42
f 42/45/42 26/20/18 43/46/43
f 26/20/18 27/22/20 43/46/43
f 43/46/43 27/22/20 44/47/44
f 27/22/20 28/24/22 44/47/44
f 44/47/44 28/24/22 45/48/45
f 28/24/22 29/26/24 45/48/45
f 45/48/45 29/26/24 46/49/46
f 29/26/24 30/28/26 46/49/46
f 46/49/46 30/28/26 47/50/47
f 30/28/26 31/30/28 47/50/47
f 47/50/47 31/30/28 48/51/48
f 31/30/28 32/32/30 48/51/48
f 48/51/48 32/32/30 49/52/49
f 32/32/30 33/34/32 49/52/49
f 49/52/49 33/34/32 50/53/50
f 33/34/32 34/36/34 50/53/50
f 50/53/50 34/36/34 51/54/51
f 34/36/34 18/4/3 51/54/51
f 51/54/51 18/4/3 35/38/35
f 35/55/35 36/56/36 52/58/52
f 52/58/52 36/56/36 53/57/53
f 36/56/36 37/59/37 53/57/53
f 53/57/53 37/59/37 54/60/54
f 37/59/37 38/61/38 54/60/54
f 54/60/54 38/61/38 55/62/55
f 38/61/38 39/63/39 55/62/55
f 55/62/55 39/63/39 56/64/56
f 39/63/39 40/65/40 56/64/56
f 56/64/56 40/65/40 57/66/57
f 40/65/40 41/67/41 57/66/57
f 57/66/57 41/67/41 58/68/58
f 41/67/41 42/69/42 58/68/58
f 58/68/58 42/69/42 59/70/59
f 42/69/42 43/71/43 59/70/59
f 59/70/59 43/71/43 60/72/60
f 43/71/43 44/73/44 60/72/60
f 60/72/60 44/73/44 61/74/61
f 44/73/44 45/75/45 61/74/61
f 61/74/61 45/75/45 62/76/62
f 45/75/45 46/77/46 62/76/62
f 62/76/62 46/77/46 63/78/63
f 46/77/46 47/79/47 63/78/63
f 63/78/63 47/79/47 64/80/64
f 47/79/47 48/81/48 64/80/64
f 64/80/64 48/81/48 65/82/65
f 48/81/48 49/83/49 65/82/65
f 65/82/65 49/83/49 66/84/66
f 49/83/49 50/85/50 66/84/66
f 66/84/66 50/85/50 67/86/67
f 50/85/50 51/87/51 67/86/67
f 67/86/67 51/87/51 68/88/68
f 51/87/51 35/55/35 68/88/68
f 68/88/68 35/55/35 52/58/52
f 52/58/52 53/57/53 69/90/69
f 69/90/69 53/57/53 70/89/70
f 53/57/53 54/60/54 70/89/70
f 70/89/70 54/60/54 71/91/71
f 54/60/54 55/62/55 71/91/71
f 71/91/71 55/62/55 72/92/72
f 55/62/55 56/64/56 72/92/72
f 72/92/72 56/64/56 73/93/73
f 56/64/56 57/66/57 73/93/73
f 73/93/73 57/66/57 74/94/74
f 57/66/57 58/68/58 74/94/74
f 74/94/74 58/68/58 75/95/75
f 58/68/58 59/70/59 75/95/75
f 75/95/75 59/70/59 76/96/76
f 59/70/59 60/72/60 76/96/76
f 76/96/76 60/72/60 77/97/77
f 60/72/60 61/74/61 77/97/77
f 77/97/77 61/74/61 78/98/78
f 61/74/61 62/76/62 78/98/78
f 78/98/78 62/76/62 79/99/79
f 62/76/62 63/78/63 79/99/79
f 79/99/79 63/78/63 80/100/80
f 63/78/63 64/80/64 80/100/80
f 80/100/80 64/80/64 81/101/81
f 64/80/64 65/82/65 81/101/81
f 81/101/81 65/82/65 82/102/82
f 65/82/65 66/84/66 82/102/82
f 82/102/82 66/84/66 83/103/83
f 66/84/66 67/86/67 83/103/83
f 83/103/83 67/86/67 84/104/84
f 67/86/67 68/88/68 84/104/84
f 84/104/84 68/88/68 85/105/85
f 68/88/68 52/58/52 85/105/85
f 85/105/85 52/58/52 69/90/69
f 69/90/69 70/89/70 86/107/86
f 86/107/86 70/89/70 87/106/87
f 70/89/70 71/91/71 87/106/87
f 87/106/87 71/91/71 88/108/88
f 71/91/71 72/92/72 88/108/88
f 88/108/88 72/92/72 89/109/89
f 72/92/72 73/93/73 89/109/89
f 89/109/89 73/93/73 90/110/90
f 73/93/73 74/94/74 90/110/90
f 90/110/90 74/94/74 91/111/91
f 74/94/74 75/95/75 91/111/91
f 91/111/91 75/95/75 92/112/92
f 75/95/75 76/96/76 92/112/92
f 92/112/92 76/96/76 93/113/93
f 76/96/76 77/97/77 93/113/93
f 93/113/93 77/97/77 94/114/94
f 77/97/77 78/98/78 94/114/94
f 94/114/94 78/98/78 95/115/95
f 78/98/78 79/99/79 95/115/95
f 95/115/95 79/99/79 96/116/96
f 79/99/79 80/100/80 96/116/96
f 96/116/96 80/100/80 97/117/97
f 80/100/80 81/101/81 97/117/97
f 97/117/97 81/101/81 98/118/98
f 81/101/81 82/102/82 98/118/98
f 98/118/98 82/102/82 99/119/99
f 82/102/82 83/103/83 99/119/99
f 99/119/99 83/103/83 100/120/100
f 83/103/83 84/104/84 100/120/100
f 100/120/100 84/104/84 101/121/101
f 84/104/84 85/105/85 101/121/101
f 101/121/101 85/105/85 102/122/102
f 85/105/85 69/90/69 102/122/102
f 102/122/102 69/90/69 86/107/86
f 86/107/86 87/106/87 103/124/103
f 103/124/103 87/106/87 104/123/104
f 87/106/87 88/108/88 104/123/104
f 104/123/104 88/108/88 105/125/105
f 88/108/88 89/109/89 105/125/105
f 105/125/105 89/109/89 106/126/106
f 89/109/89 90/110/90 106/126/106
f 106/126/106 90/110/90 107/127/107
f 90/110/90 91/111/91 107/127/107
f 107/127/107 91/111/91 108/128/108
f 91/111/91 92/112/92 108/128/108
f 108/128/108 92/112/92 109/129/109
f 92/112/92 93/113/93 109/129/109
f 109/129/109 93/113/93 110/130/110
f 93/113/93 94/114/94 110/130/110
f 110/130/110 94/114/94 111/131/111
f 94/114/94 95/115/95 111/131/111
f 111/131/111 95/115/95 112/132/112
f 95/115/95 96/116/96 112/132/112
f 112/132/112 96/116/96 113/133/113
f 96/116/96 97/117/97 113/133/113
f 113/133/113 97/117/97 114/134/114
f 97/117/97 98/118/98 114/134/114
f 114/134/114 98/118/98 115/135/115
f 98/118/98 99/119/99 115/135/115
f 115/135/115 99/119/99 116/136/116
f 99/119/99 100/120/100 116/136/116
f 116/136/116 100/120/100 117/137/117
f 100/120/100 101/121/101 117/137/117
f 117/137/117 101/121/101 118/138/118
f 101/121/101 102/122/102 118/138/118
f 118/138/118 102/122/102 119/139/119
f 102/122/102 86/107/86 119/139/119
f 119/139/119 86/107/86 103/124/103
f 103/124/103 104/123/104 120/141/120
f 120/141/120 104/123/104 121/140/121
f 104/123/104 105/125/105 121/140/121
f 121/140/121 105/125/105 122/142/122
f 105/125/105 106/126/106 122/142/122
f 122/142/122 106/126/106 123/143/123
f 106/126/106 107/127/107 123/143/123
f 123/143/123 107/127/107 124/144/124
f 107/127/107 108/128/108 124/144/124
f 124/144/124 108/128/108 125/145/125
f 108/128/108 109/129/109 125/145/125
f 125/145/125 109/129/109 126/146/126
f 109/129/109 110/130/110 126/146/126
f 126/146/126 110/130/110 127/147/127
f 110/130/110 111/131/111 127/147/127
f 127/147/127 111/131/111 128/148/128
f 111/131/111 112/132/112 128/148/128
f 128/148/128 112/132/112 129/149/129
f 112/132/112 113/133/113 129/149/129
f 129/149/129 113/133/113 130/150/130
f 113/133/113 114/134/114 130/150/130
f 130/150/130 114/134/114 131/151/131
f 114/134/114 115/135/115 131/151/131
f 131/151/131 115/135/115 132/152/132
f 115/135/115 116/136/116 132/152/132
f 132/152/132 116/136/116 133/153/133
f 116/136/116 117/137/117 133/153/133
f 133/153/133 117/137/117 134/154/134
f 117/137/117 118/138/118 134/154/134
f 134/154/134 118/138/118 135/155/135
f 118/138/118 119/139/119 135/155/135
f 135/155/135 119/139/119 136/156/136
f 119/139/119 103/124/103 136/156/136
f 136/156/136 103/124/103 120/141/120
f 120/141/120 121/140/121 137/157/137
f 121/140/121 122/142/122 137/157/137
f 122/142/122 123/143/123 137/157/137
f 123/143/123 124/144/124 137/157/137
f 124/144/124 125/145/125 137/157/137
f 125/145/125 126/146/126 137/157/137
f 126/146/126 127/147/127 137/157/137
f 127/147/127 128/148/128 137/157/137
f 128/148/128 129/149/129 137/157/137
f 129/149/129 130/150/130 137/157/137
f 130/150/130 131/151/131 137/157/137
f 131/151/131 132/152/132 137/157/137
f 132/152/132 133/153/133 137/157/137
f 133/153/133 134/154/134 137/157/137
f 134/154/134 135/155/135 137/157/137
f 135/155/135 136/156/136 137/157/137
f 136/156/136 120/141/120 137/157/137
